<?xml version="1.0" encoding="UTF-8" standalone="no"?>
<!-- Created with Inkscape (http://www.inkscape.org/) -->

<svg
   xmlns:dc="http://purl.org/dc/elements/1.1/"
   xmlns:cc="http://creativecommons.org/ns#"
   xmlns:rdf="http://www.w3.org/1999/02/22-rdf-syntax-ns#"
   xmlns:svg="http://www.w3.org/2000/svg"
   xmlns="http://www.w3.org/2000/svg"
   xmlns:sodipodi="http://sodipodi.sourceforge.net/DTD/sodipodi-0.dtd"
   xmlns:inkscape="http://www.inkscape.org/namespaces/inkscape"
   width="108.59834mm"
   height="108.59834mm"
   viewBox="0 0 108.59834 108.59834"
   version="1.1"
   id="svg1506"
   sodipodi:docname="british_flag.svg"
   inkscape:version="0.92.3 (2405546, 2018-03-11)">
  <defs
     id="defs1500" />
  <sodipodi:namedview
     id="base"
     pagecolor="#ffffff"
     bordercolor="#666666"
     borderopacity="1.0"
     inkscape:pageopacity="0.0"
     inkscape:pageshadow="2"
     inkscape:zoom="0.98994949"
     inkscape:cx="-107.16841"
     inkscape:cy="221.7369"
     inkscape:document-units="mm"
     inkscape:current-layer="layer1"
     showgrid="false"
     fit-margin-top="0"
     fit-margin-left="0"
     fit-margin-right="0"
     fit-margin-bottom="0"
     inkscape:window-width="1920"
     inkscape:window-height="1001"
     inkscape:window-x="-9"
     inkscape:window-y="-9"
     inkscape:window-maximized="1" />
  <metadata
     id="metadata1503">
    <rdf:RDF>
      <cc:Work
         rdf:about="">
        <dc:format>image/svg+xml</dc:format>
        <dc:type
           rdf:resource="http://purl.org/dc/dcmitype/StillImage" />
        <dc:title></dc:title>
      </cc:Work>
    </rdf:RDF>
  </metadata>
  <g
     inkscape:label="Ebene 1"
     inkscape:groupmode="layer"
     id="layer1"
     transform="translate(-71.944881,-52.200832)">
    <circle
       style="opacity:1;fill:#ffffff;fill-opacity:1;stroke:#fafafa;stroke-width:2.7650001;stroke-linecap:round;stroke-linejoin:bevel;stroke-miterlimit:4;stroke-dasharray:none;stroke-dashoffset:0;stroke-opacity:1;paint-order:stroke fill markers"
       id="path1431"
       cx="126.24405"
       cy="106.5"
       r="52.916668" />
    <path
       sodipodi:nodetypes="ccscsccccscsccccscscscscsccccscscccccccssccccccssccccscscccccccccccccc"
       inkscape:connector-curvature="0"
       id="path1415-6"
       d="m 121.33818,159.24696 -1.01457,-0.08 v -21.51874 c 0,-16.452 -0.0604,-21.57909 -0.25633,-21.77506 -0.19616,-0.19615 -5.60765,-0.25631 -23.055707,-0.25631 -13.549852,0 -22.848398,-0.0793 -22.920143,-0.19535 -0.06641,-0.10745 -0.276032,-1.52519 -0.465831,-3.15054 -0.392353,-3.35985 -0.289872,-10.78268 0.185293,-13.421368 l 0.269259,-1.495171 22.834029,-0.05437 c 16.44158,-0.03915 22.91453,-0.121216 23.12172,-0.293148 0.23773,-0.197299 0.28771,-3.976311 0.28771,-21.754902 V 53.735887 l 1.44174,-0.136165 c 1.87167,-0.176763 7.52282,-0.177977 9.20671,-0.0018 l 1.31289,0.137226 v 21.500011 c 0,16.437438 0.0604,21.560367 0.25633,21.756328 0.19613,0.196154 5.60763,0.256315 23.05574,0.256315 13.29372,0 22.84896,0.08021 22.91828,0.192386 0.29451,0.476518 0.7607,5.987392 0.7607,8.992232 0,3.00483 -0.46619,8.5157 -0.7607,8.99222 -0.0693,0.11218 -9.62456,0.19239 -22.91828,0.19239 -17.44811,0 -22.85961,0.0602 -23.05574,0.25631 -0.19595,0.19596 -0.25633,5.31879 -0.25633,21.75587 v 21.49956 l -1.44177,0.13617 c -1.46942,0.13877 -7.66649,0.12717 -9.505,-0.0178 z m -30.386963,-13.3123 c -0.938175,-0.83591 -1.741725,-1.61928 -1.78568,-1.7408 -0.04394,-0.12153 4.569364,-4.87094 10.251786,-10.55426 l 10.331637,-10.33331 h 2.61736 2.61739 v 1.15659 1.15659 l -10.90618,10.85816 c -5.998443,5.972 -11.021925,10.88488 -11.163369,10.91753 -0.141443,0.0326 -1.024768,-0.62459 -1.962944,-1.4605 z m 63.013713,-12.58937 -10.03728,-10.039 h 3.8449 3.84492 l 8.07236,8.07446 8.07236,8.07445 -0.66781,0.84036 c -0.91459,1.15085 -2.76117,3.08872 -2.94323,3.08872 -0.0819,0 -4.66571,-4.51755 -10.18622,-10.03899 z M 101.47327,89.588326 C 101.0947,89.479429 85.080328,73.480567 85.080328,73.211271 c 0,-0.227253 3.089574,-3.79417 3.370709,-3.891486 0.08518,-0.02949 4.719823,4.51209 10.299192,10.092388 l 10.144341,10.146007 -1.17396,0.01114 c -0.64564,0.0061 -2.25549,0.03017 -3.57741,0.0534 -1.32191,0.02323 -2.52338,0.0078 -2.66993,-0.03441 z m 37.48656,0.01304 -1.33498,-0.06359 v -1.325561 -1.325568 l 10.86726,-10.865699 c 5.97701,-5.976131 10.97825,-10.828698 11.1139,-10.783478 0.3252,0.108395 3.58317,3.000611 3.71933,3.30177 0.0581,0.128609 -4.57126,4.901113 -10.28761,10.605569 l -10.39339,10.371749 -1.17475,0.0742 c -0.64614,0.04082 -1.77551,0.04559 -2.50976,0.01061 z"
       style="fill:#e4011c;fill-opacity:1;stroke-width:0.21359564" />
    <path
       inkscape:connector-curvature="0"
       id="path1413-2"
       d="m 112.16032,157.78621 c -3.10597,-0.90637 -6.10455,-2.0198 -8.71622,-3.23646 -2.11011,-0.98302 -6.878906,-3.74999 -7.265224,-4.21544 -0.171027,-0.2061 2.072667,-2.56955 9.285314,-9.78082 l 9.51084,-9.50905 v 13.74482 c 0,7.55966 -0.0722,13.74029 -0.16047,13.73475 -0.0882,-0.006 -1.28264,-0.33754 -2.65424,-0.7378 z m 25.4925,-13.01812 v -13.72365 l 9.51698,9.51521 c 7.48416,7.48275 9.4606,9.57017 9.25295,9.77252 -0.64809,0.63155 -4.35583,2.79789 -6.8962,4.02929 -2.88539,1.39863 -7.92292,3.23562 -10.42967,3.80326 l -1.44406,0.32701 z m -56.214355,-9.71405 c -2.093995,-3.20816 -5.400712,-10.22267 -5.400712,-11.45648 0,-0.3373 0.739595,-0.36377 10.162207,-0.36377 5.589211,0 10.162193,0.0728 10.162193,0.16173 0,0.21283 -13.324885,13.5305 -13.537822,13.5305 -0.0902,0 -0.713832,-0.84239 -1.385866,-1.87198 z m 81.511585,-4.81493 c -3.67638,-3.67781 -6.68438,-6.75856 -6.68438,-6.84612 0,-0.0876 4.57301,-0.1592 10.16222,-0.1592 8.67526,0 10.16222,0.0448 10.16222,0.30631 0,0.614 -1.33493,3.9328 -2.67353,6.64677 -1.36435,2.76622 -3.78881,6.73915 -4.11255,6.73915 -0.0933,0 -3.17751,-3.00911 -6.85398,-6.68691 z M 75.993192,89.743084 c -0.417489,-0.417486 3.252758,-8.324165 5.400407,-11.633891 l 1.307804,-2.015442 6.723399,6.720872 c 3.697888,3.696483 6.723409,6.793656 6.723409,6.882608 0,0.18165 -19.973769,0.227095 -20.155019,0.04585 z m 80.486418,-0.04585 c 0,-0.08895 3.01363,-3.174211 6.69695,-6.856129 6.28592,-6.283561 6.71751,-6.670807 7.03257,-6.309993 1.61018,1.844011 5.83292,10.32033 6.29677,12.639374 l 0.13768,0.688478 h -10.08199 c -5.54509,0 -10.08198,-0.07278 -10.08198,-0.16173 z M 105.40117,72.690227 c -5.20679,-5.207801 -9.466901,-9.54269 -9.466901,-9.63309 0,-0.27265 3.411749,-2.409039 6.010801,-3.763862 3.10968,-1.621028 6.78762,-3.06242 10.20189,-3.998169 1.47716,-0.404852 2.71851,-0.703366 2.75852,-0.663366 0.04,0.04 0.0479,6.24998 0.0175,13.799963 l -0.0551,13.727248 z m 32.25165,-4.294187 c 0,-13.102468 0.0204,-13.860542 0.37438,-13.763347 6.05589,1.663745 7.85707,2.315517 11.92721,4.315854 2.75754,1.355235 6.73915,3.781928 6.73915,4.107317 0,0.09307 -4.28419,4.452583 -9.5204,9.687801 l -9.52034,9.518576 z"
       style="fill:#00247c;fill-opacity:1;stroke-width:0.21394117" />
  </g>
</svg>
