<svg width="7" height="22" viewBox="0 0 7 22" fill="none" xmlns="http://www.w3.org/2000/svg">
<path d="M6.09239 7.823L0.939892 8.46875L0.755392 9.32375L1.76789 9.5105C2.42939 9.668 2.55989 9.9065 2.41589 10.5658L0.755392 18.3687C0.318892 20.387 0.991643 21.3365 2.57339 21.3365C3.79964 21.3365 5.22389 20.7695 5.86964 19.991L6.06764 19.055C5.61764 19.451 4.96064 19.6085 4.52414 19.6085C3.90539 19.6085 3.68039 19.1743 3.84014 18.4093L6.09239 7.823ZM6.24989 3.125C6.24989 3.72174 6.01284 4.29403 5.59088 4.71599C5.16893 5.13795 4.59663 5.375 3.99989 5.375C3.40316 5.375 2.83086 5.13795 2.4089 4.71599C1.98695 4.29403 1.74989 3.72174 1.74989 3.125C1.74989 2.52826 1.98695 1.95597 2.4089 1.53401C2.83086 1.11205 3.40316 0.875 3.99989 0.875C4.59663 0.875 5.16893 1.11205 5.59088 1.53401C6.01284 1.95597 6.24989 2.52826 6.24989 3.125Z" fill="#7CA5B4"/>
</svg>
