<svg width="20" height="20" viewBox="0 0 20 20" fill="none" xmlns="http://www.w3.org/2000/svg">
<path d="M1.66602 4.99935H18.3327M8.33268 9.16602V13.3327M11.666 9.16602V13.3327M3.33268 4.99935H16.666L15.3493 16.8493C15.3042 17.2572 15.1102 17.634 14.8046 17.9077C14.4989 18.1814 14.103 18.3327 13.6927 18.3327H6.30602C5.89571 18.3327 5.49982 18.1814 5.19414 17.9077C4.88846 17.634 4.69448 17.2572 4.64935 16.8493L3.33268 4.99935ZM6.12018 2.62185C6.25498 2.33599 6.46827 2.09435 6.73519 1.92511C7.0021 1.75587 7.31164 1.66601 7.62768 1.66602H12.371C12.6872 1.66585 12.9969 1.75564 13.264 1.92488C13.5311 2.09413 13.7445 2.33586 13.8793 2.62185L14.9993 4.99935H4.99935L6.12018 2.62185V2.62185Z" stroke="#7CA5B4" stroke-width="2.08333" stroke-linecap="round" stroke-linejoin="round"/>
</svg>
