<svg width="19" height="21" viewBox="0 0 19 21" fill="none" xmlns="http://www.w3.org/2000/svg">
<path d="M7.54303 1.31223C7.70074 0.924522 7.97127 0.592489 8.31993 0.358695C8.66859 0.124902 9.07951 0 9.5 0C9.92049 0 10.3314 0.124902 10.6801 0.358695C11.0287 0.592489 11.2993 0.924522 11.457 1.31223C13.0178 1.73921 14.3947 2.66403 15.3759 3.94466C16.3572 5.22529 16.8887 6.79092 16.8888 8.40109V13.3324L18.8225 16.2175C18.9286 16.3756 18.9895 16.5594 18.9988 16.7493C19.008 16.9391 18.9653 17.1279 18.8752 17.2955C18.785 17.4631 18.6508 17.6032 18.4869 17.7009C18.3229 17.7985 18.1354 17.8501 17.9443 17.8501H13.1574C13.0303 18.7248 12.5907 19.5246 11.919 20.1031C11.2473 20.6816 10.3885 21 9.5 21C8.61149 21 7.75272 20.6816 7.08102 20.1031C6.40932 19.5246 5.96965 18.7248 5.84256 17.8501H1.0557C0.864598 17.8501 0.677078 17.7985 0.51314 17.7009C0.349202 17.6032 0.214998 17.4631 0.124844 17.2955C0.0346913 17.1279 -0.00802816 16.9391 0.00124326 16.7493C0.0105147 16.5594 0.0714293 16.3756 0.177488 16.2175L2.11123 13.3324V8.40109C2.11123 5.01624 4.41231 2.16474 7.54303 1.31223ZM8.00747 17.8501C8.11648 18.1573 8.31863 18.4234 8.58603 18.6116C8.85344 18.7998 9.17295 18.9008 9.50053 18.9008C9.8281 18.9008 10.1476 18.7998 10.415 18.6116C10.6824 18.4234 10.8846 18.1573 10.9936 17.8501H8.00641H8.00747ZM9.5 3.15164C8.10027 3.15164 6.75787 3.70471 5.76811 4.68917C4.77835 5.67363 4.22231 7.00885 4.22231 8.40109V13.6505C4.22236 13.8579 4.16065 14.0607 4.04498 14.2332L3.0285 15.7503H15.9704L14.954 14.2332C14.8387 14.0606 14.7773 13.8578 14.7777 13.6505V8.40109C14.7777 7.00885 14.2216 5.67363 13.2319 4.68917C12.2421 3.70471 10.8997 3.15164 9.5 3.15164Z" fill="#323232"/>
</svg>
