<svg width="26" height="25" viewBox="0 0 26 25" fill="none" xmlns="http://www.w3.org/2000/svg">
<path d="M14.1497 0.646807C13.6999 -0.215602 12.3012 -0.215602 11.8514 0.646807L0.152008 23.0642C0.046692 23.2651 -0.00551917 23.4903 0.000461724 23.7178C0.00644262 23.9453 0.0704116 24.1673 0.186136 24.3622C0.30186 24.5572 0.465393 24.7184 0.660799 24.8302C0.856206 24.9419 1.07682 25.0004 1.30115 25H24.7C24.9242 25.0005 25.1446 24.942 25.3399 24.8303C25.5352 24.7186 25.6986 24.5575 25.8142 24.3626C25.9298 24.1678 25.9937 23.9459 25.9995 23.7186C26.0054 23.4912 25.9532 23.2662 25.8478 23.0655L14.1497 0.646807ZM14.3005 21.044H11.7006V18.4066H14.3005V21.044ZM11.7006 15.7693V9.17596H14.3005L14.3018 15.7693H11.7006Z" fill="#FFCD1A"/>
</svg>
